<?xml version="1.0" encoding="utf-8"?>
<!-- Generator: Adobe Illustrator 24.0.1, SVG Export Plug-In . SVG Version: 6.00 Build 0)  -->
<svg version="1.1" id="Ebene_1" xmlns="http://www.w3.org/2000/svg" xmlns:xlink="http://www.w3.org/1999/xlink" x="0px" y="0px"
	 viewBox="0 0 2799 1191.8" style="enable-background:new 0 0 2799 1191.8;" xml:space="preserve">
<style type="text/css">
	.st0{fill:#FFFFFF;}
	.st1{fill-rule:evenodd;clip-rule:evenodd;fill:#FFFFFF;}
</style>
<path class="st0" d="M1013.7,68.5c3.7,5.1,6.8,11.6,5.8,18.4c-1.7,12.6-14.3,23.9-26.2,27.3c-9.6,3.1-21.5,3.4-29.7-2.4
	c-5.8-3.1-8.5-8.9-9.9-14.3c-1.3-9.9,3.5-17.7,9.9-24.5C977.6,62,998.3,56.2,1013.7,68.5"/>
<path class="st0" d="M999.3,129.8c-45.3,95.8-69.2,205.5-68.8,315.3c-2.1,52.2-0.7,107.7-12.3,161.2
	C907,668.7,887,725.9,862.5,782.4h-55.2c40.9-94.1,68.8-196.3,67.4-304c0.7-89.3,8.2-188.4,38.9-272.7c9.9-27.3,20.4-54.2,32.7-80.8
	C960.8,135.6,982.7,136.3,999.3,129.8"/>
<polygon class="st0" points="1052.5,548 1024,622.9 1129.5,622.9 1112.5,667.4 1007,667.4 963.3,782.1 905.5,782.1 1011.8,503.5 
	1210.7,503.5 1193.7,548 "/>
<polygon class="st0" points="1287.4,548 1257.8,623 1361.9,623 1344.4,666.1 1240.6,666.1 1214.1,737.5 1352.8,737.5 1336.3,782.1 
	1144.2,782.1 1247.9,503.5 1440.2,503.5 1423.6,548 "/>
<polygon class="st0" points="753.2,460.9 855.8,183.6 855.8,183.6 802.5,183.8 715,420 714,419.9 672.5,183.6 611.9,183.6 
	526.1,419.9 522.6,419.9 457.5,183.7 404.4,183.7 484.8,460.9 560.7,460.9 638.9,248.3 640.8,248.4 676,460.9 "/>
<path class="st0" d="M1226.5,460.8l102.2-275h1.6l-51.2,0.1l-85.4,230.6c-0.3,0.7-1.7,0.7-2.1,0l-33-231h-87.3L968.6,461l55.3-0.1
	l85-230.2l1.7-0.4c0.4,0.4,1,0.7,1,1.7l25.5,228.8L1226.5,460.8L1226.5,460.8z"/>
<path class="st0" d="M1544.4,368.8l19.5-53h-108.7h-13.2l-14.4,39.1h13.2h56.4l-3.8,10.3c-8.8,23.7-18.9,37.7-29,44
	c-9.4,5.9-26.8,9.1-52.1,9.5c-2,0-3.9,0.1-6.1,0.1c-29.5,0-46.9-3.7-52.2-11.3c-5.4-7.5-2.9-25.1,7.2-52.6l12.5-35.5l10.5-27.8
	c10.3-28,20.9-45.8,31.9-53.4c11-7.5,31.8-11.4,62.2-11.4c2.8,0,5.5,0,8.1,0.1c23.1,0.4,37.2,2.6,42,6.5c5.4,4.4,5.2,15.6-0.5,33.6
	h13.2h40c13.2-35.8,14.6-58.9,4.1-69.4c-9.9-9.8-37-15-81.2-15.6c-2.7-0.1-5.5-0.1-8.3-0.1c-37.6,0-65.5,3.4-83.7,10.1
	c-18.2,6.8-34.7,19.9-49.6,39.3c-12.1,16-29.3,54.2-51.7,114.8c-17.5,47.4-21.3,78.9-11.4,94.3c9.9,15.4,38.8,23.1,86.7,23.1
	c2.7,0,5.2,0,7.8-0.1c47.9-0.6,81.1-6.3,99.5-17.3C1512.5,434.7,1529.6,408.8,1544.4,368.8"/>
<path class="st0" d="M1846.5,197.3c-10.2-9.4-34.2-14.3-72.1-14.8c-2.1,0-4.2,0-6.4,0c-43.9,0-75.2,5.4-93.8,16.1
	c-18.7,10.7-34,32.2-46,64.5c-11.8,31.6-13.3,52.2-4.8,61.7c8.6,9.6,34.4,15.7,77.2,18.3l28.3,1.8c16,1,25.7,3.6,29,8
	c3.3,4.4,2.5,13.2-2.5,26.6c-6.8,18.1-14.3,29.6-22.6,34.6c-7.8,4.7-22.3,7.1-43.4,7.4c-1.5,0-2.9,0.1-4.5,0.1
	c-30.2,0-47.9-2.2-53.1-6.5c-5.1-4.3-4.1-16.1,3.1-35.5l1.8-5h-38.5h-12.6l-3.4,9.3c-12.1,32.2-12.9,53.7-2.5,64.3
	c10.4,10.6,37.3,15.9,80.9,15.9c2.3,0,4.4,0,6.6,0c44.8-0.5,76-5.8,93.4-16c18.2-10.7,34.2-34.4,47.8-71.2
	c11.1-29.8,12.3-49.5,3.8-58.9c-8.6-9.5-33.1-15.3-73.6-17.6c-34.3-1.9-53.8-4.6-58.8-8.1c-4.9-3.5-4.2-14,2.3-31.4
	c5.5-14.7,12.9-24.4,22.2-29c9.4-4.6,26.5-6.9,51.4-6.9c2.2,0,4.2,0,6.2,0.1c17.4,0.4,28,2.3,31.8,5.8c4.2,4,4.1,13.7-0.5,29.2
	c-0.5,1.2-6.2,17-6.9,19.6l51.7-0.7l8.5-23.8C1857.3,226.5,1857.2,207.2,1846.5,197.3"/>
<path class="st0" d="M2409.2,266.1l-528.6-0.1l-4.4,15.4l269.7,0.1c0,0,21.1,0.7,24.9,1.2c4.3,0.6,11.7,1.8,7.2,9
	c-7.8,11.6-27.3,21.9-40.7,27.7c-77.3,33.7-161.3,38.8-249.6,43.3l-40.8,0.1l-4.2,14.6h28.8c99.4-1,196.4-7.5,290.3-23.2
	c82.6-14.7,164.3-31.7,238.2-69.6c4.1-2.5,13.2-6.6,15.4-14.7C2416.1,266.7,2412.6,266.2,2409.2,266.1"/>
<line class="st0" x1="1420.1" y1="127.7" x2="1420.1" y2="127.7"/>
<path class="st0" d="M2111.2,407.5l-279.5-0.3l-6.8,15c26.8,0.7,23.9-0.2,47.1,3.6c4.2,1,10.1,4.5,9.2,10
	c-1.2,7.6-22,17.6-41.5,26.3c-75.5,33.6-146.9,38.2-233.6,41.6l-128.1,0.7l-5.2,14.3h101.5c136.9,0.3,254.5-11.9,380.4-40.9
	c51.5-13,102-27.2,149.1-52.2c6.3-3.4,15.3-8.9,15.3-14.6C2118.4,408.6,2116.5,407.5,2111.2,407.5"/>
<path class="st1" d="M650.9,737L738,502.7h-22.6v0h-155c0,0,6-26.7-25.1-27.7c0,0-23,1.7-39.6,18.8l6.8-12c0,0,2.3-4-5-4.2
	c-6.1-0.2-35.7,0-35.7,0s-32.7,26-58.5,31.2c0,0,2.4-36.9-45.5-36.6c0,0-26.8,0.4-51.2,20.1c0,0-8.8,10.1-48.4,15.1l2-4.7
	C431.9,446.4,366,249.5,366,249.5c-4-13-16.7-54.9-16.7-54.9S232,479.3,224.9,498.1c0,0-17.2,3.3-48.6,4.7
	c-3.9,0.2-129.5,12.8-129.5,12.8l130.5-0.2c0,0,11.9,0.1,39.7,0.1L111,741.5c0,0,36.4-44,56.4-69.3c15.8-20,32-39.5,44.1-63.5
	c8.9-17.6,35.5-77.5,43.2-93.4c0,0,30.9-0.6,34.9-2c0,0-7.4,15-7.3,28.1c0.1,13.1,11.2,36.5,45.5,36.2c0.1,0.3,34.5-1.7,56.1-25.5
	c0,0,15.2-14.6,19-34.4c0,0,32.5-6.1,45.5-16.2c0,0-34,58.2-40.1,68.5l-3.3,5.7h14.1c7.5,0.1,18-0.2,21.4-2.1
	c0,0,14.9-3.1,26.4-26.5c0,0,17.8-29.9,33.2-44.6c0,0,9.9-9.3,17.8-10.8c0,0,12.1-1.9,12.5,13.7v10.1l10.5,0h135.8l-98.5,266.8
	h200.7l16.9-45.3L650.9,737z M357.9,269.4c41,181.1-89.8,216.4-89.8,216.4L357.9,269.4z M390,511.3c-3.9,40.1-46.6,49-46.6,49
	c-28.4-39.5,17-74.6,17-74.6C391.2,487.6,390,511.3,390,511.3"/>
<path class="st0" d="M2733.6,127.4l-1313.5-0.3v0h-9.5h-38l-5.7,15.6l51.9-0.2l0,0l1051.4,0.3c0,0,21,0.7,24.9,1.2
	c4.3,0.6,11.7,1.8,7.2,9c-7.8,11.6-27.3,21.9-40.7,27.7c-77.3,33.7-161.3,38.8-249.6,43.3l-317,0.4l-3.7,14.3H2196
	c99.5-1,196.4-7.5,290.3-23.2c82.6-14.7,164.3-31.7,238.2-69.6c4.2-2.6,13.2-6.6,15.3-14.8C2740.5,127.9,2737.1,127.5,2733.6,127.4z
	"/>
<rect x="46.8" y="828.6" class="st0" width="2693.1" height="286.9"/>
<g>
	<path d="M408.9,881l-57.7,174.1h-34.3l-43-128.8l-43.8,128.8h-34.6L137.9,881h33.6l43.3,132.3l45-132.3h29.8l44,133l44.5-133H408.9
		z"/>
	<path d="M471.8,1046.1c-14.3-7.7-25.5-18.4-33.6-32.1c-8.1-13.7-12.2-29-12.2-45.9c0-16.9,4.1-32.2,12.2-45.9
		c8.1-13.7,19.3-24.4,33.6-32.1s30.2-11.6,48-11.6c17.7,0,33.7,3.9,48,11.6c14.3,7.7,25.5,18.4,33.6,32c8.1,13.6,12.2,28.9,12.2,46
		s-4.1,32.4-12.2,46s-19.3,24.3-33.6,32c-14.3,7.7-30.3,11.6-48,11.6C502.1,1057.6,486.1,1053.8,471.8,1046.1z M551.2,1021.4
		c9.3-5.2,16.6-12.5,21.9-21.9s8-19.8,8-31.5c0-11.6-2.7-22.1-8-31.5s-12.6-16.7-21.9-21.9c-9.3-5.2-19.7-7.8-31.3-7.8
		c-11.6,0-22,2.6-31.3,7.8c-9.3,5.2-16.6,12.5-21.9,21.9c-5.3,9.4-8,19.8-8,31.5c0,11.6,2.6,22.1,8,31.5
		c5.3,9.4,12.6,16.7,21.9,21.9s19.7,7.8,31.3,7.8C531.4,1029.3,541.9,1026.7,551.2,1021.4z"/>
	<path d="M766.8,1055.1l-35.6-51c-1.5,0.2-3.7,0.2-6.7,0.2h-39.3v50.7h-32.3V881h71.6c15.1,0,28.2,2.5,39.4,7.5
		c11.2,5,19.8,12.1,25.7,21.4c6,9.3,9,20.3,9,33.1c0,13.1-3.2,24.4-9.6,33.8c-6.4,9.5-15.5,16.5-27.5,21.1l40,57.2L766.8,1055.1
		L766.8,1055.1z M755.1,917.4c-7.3-6-18-9-32.1-9h-37.8v69.4H723c14.1,0,24.8-3,32.1-9.1c7.3-6,10.9-14.6,10.9-25.7
		C766,931.9,762.4,923.3,755.1,917.4z"/>
	<path d="M839.6,881H872v146.7h91v27.3H839.6V881z"/>
	<path d="M993.5,881h76.1c18.6,0,35.1,3.6,49.5,10.8c14.4,7.2,25.6,17.4,33.6,30.6c8,13.2,11.9,28.4,11.9,45.6s-4,32.5-11.9,45.6
		s-19.2,23.4-33.6,30.6c-14.4,7.2-30.9,10.8-49.5,10.8h-76.1L993.5,881L993.5,881z M1068.2,1027.8c12.8,0,24-2.4,33.7-7.3
		c9.7-4.9,17.2-11.8,22.4-20.9c5.2-9,7.8-19.5,7.8-31.5s-2.6-22.4-7.8-31.5c-5.2-9-12.7-16-22.4-20.9s-20.9-7.3-33.7-7.3h-42.3
		v119.4L1068.2,1027.8L1068.2,1027.8z"/>
	<path d="M1391.4,1055.1l-35.6-51c-1.5,0.2-3.7,0.2-6.7,0.2h-39.3v50.7h-32.3V881h71.6c15.1,0,28.2,2.5,39.4,7.5
		c11.2,5,19.8,12.1,25.7,21.4c6,9.3,8.9,20.3,8.9,33.1c0,13.1-3.2,24.4-9.6,33.8s-15.5,16.5-27.5,21.1l40,57.2L1391.4,1055.1
		L1391.4,1055.1z M1379.7,917.4c-7.3-6-18-9-32.1-9h-37.8v69.4h37.8c14.1,0,24.8-3,32.1-9.1c7.3-6,10.9-14.6,10.9-25.7
		C1390.7,931.9,1387,923.3,1379.7,917.4z"/>
	<path d="M1482.9,1037.3c-13.4-13.5-20.1-32.9-20.1-58.1v-98.2h32.3v97c0,34.2,14.8,51.2,44.3,51.2c29.3,0,44-17.1,44-51.2v-97h31.8
		v98.2c0,25.2-6.7,44.5-20,58.1c-13.3,13.5-32,20.3-56.1,20.3C1515.1,1057.6,1496.4,1050.9,1482.9,1037.3z"/>
	<path d="M1820.1,881v174.1h-26.6l-96-117.9v117.9h-32.1V881h26.6l96,117.9V881H1820.1z"/>
	<path d="M2199.9,881l-57.7,174.1h-34.3l-43-128.8l-43.8,128.8h-34.6L1928.8,881h33.6l43.3,132.3l45-132.3h29.8l44,133l44.5-133
		H2199.9z"/>
	<path d="M2231.2,881h32.3v174.1h-32.3V881z"/>
	<path d="M2446,1028v27.1h-130.6V881h127.1v27.1h-94.7v45.3h84.1V980h-84.1v48H2446z"/>
	<path d="M2641.7,881v174.1h-26.6l-96-117.9v117.9h-32.1V881h26.6l96,117.9V881H2641.7z"/>
</g>
</svg>
